<svg width="435" height="259" viewBox="0 0 435 259" fill="none" xmlns="http://www.w3.org/2000/svg">
<mask id="mask0_91_651" style="mask-type:luminance" maskUnits="userSpaceOnUse" x="165" y="95" width="42" height="108">
<path d="M165.061 95.0129H206.045V202.013H165.061V95.0129Z" fill="white"/>
</mask>
<g mask="url(#mask0_91_651)">
<path d="M186.873 95.2265C186.212 95.4088 185.759 95.8255 185.519 96.4661L166.076 148.31C165.962 148.602 165.925 148.909 165.957 149.221C165.983 149.534 166.082 149.825 166.248 150.091C166.415 150.362 166.634 150.575 166.899 150.742C167.165 150.909 167.457 151.008 167.769 151.039L180.681 152.331L175.431 199.643C175.405 199.888 175.42 200.128 175.483 200.367C175.54 200.607 175.644 200.825 175.78 201.023C175.92 201.227 176.092 201.398 176.295 201.539C176.493 201.674 176.712 201.779 176.951 201.836C177.191 201.898 177.431 201.914 177.675 201.883C177.915 201.857 178.149 201.789 178.368 201.68C178.587 201.565 178.78 201.419 178.941 201.237C179.108 201.06 179.238 200.852 179.326 200.628L205.248 136.32C205.389 135.977 205.431 135.622 205.373 135.253C205.316 134.888 205.17 134.56 204.931 134.273C204.696 133.987 204.399 133.779 204.05 133.654C203.701 133.529 203.342 133.503 202.978 133.575L187.571 136.57L189.441 97.2734C189.451 96.9505 189.394 96.638 189.259 96.3411C189.129 96.0494 188.936 95.7994 188.681 95.5963C188.425 95.3932 188.139 95.2578 187.821 95.19C187.504 95.1275 187.186 95.138 186.873 95.2265ZM184.774 109.977L183.399 138.961C183.384 139.268 183.436 139.565 183.561 139.852C183.681 140.138 183.863 140.383 184.097 140.586C184.332 140.789 184.597 140.93 184.899 141.008C185.196 141.091 185.498 141.102 185.806 141.039L200.097 138.263L181.092 185.404L184.941 150.742C184.972 150.471 184.946 150.206 184.873 149.945C184.795 149.685 184.675 149.45 184.504 149.242C184.332 149.029 184.129 148.862 183.889 148.732C183.649 148.602 183.399 148.529 183.129 148.497L170.795 147.263L184.774 109.977Z" fill="#FFCEF1"/>
</g>
<path d="M30.0088 1.55481L55.6546 61.659C55.889 62.2319 55.889 62.6902 55.6546 63.034C55.4307 63.3829 55.014 63.5548 54.4046 63.5548H49.2796C48.8473 63.5548 48.4567 63.4611 48.113 63.2631C47.7796 63.0548 47.5348 62.7371 47.3838 62.3048L42.863 51.2423H14.113L9.59212 62.3048C9.24316 63.1381 8.59732 63.5548 7.65462 63.5548H2.57128C1.94628 63.5548 1.51399 63.3829 1.27962 63.034C1.05566 62.6902 1.07128 62.2319 1.32128 61.659L26.9463 1.55481C27.3213 0.638143 27.8265 0.17981 28.4671 0.17981C29.1182 0.17981 29.6338 0.638143 30.0088 1.55481ZM28.488 16.1173L16.9463 44.3465H40.0296L28.488 16.1173Z" fill="#FAFFFB"/>
<path d="M83.9729 64.8465C81.0667 64.8465 78.3375 64.4402 75.7854 63.6381C73.2281 62.8361 70.9625 61.5913 68.9938 59.909C67.0354 58.2319 65.4938 56.0548 64.3688 53.3881C63.2542 50.7215 62.7021 47.534 62.7021 43.8256V3.20064C62.7021 2.10689 63.2542 1.55481 64.3688 1.55481H69.0354C70.1448 1.55481 70.7021 2.10689 70.7021 3.20064V43.0965C70.7021 46.6381 71.249 49.4611 72.3479 51.5548C73.4573 53.6381 75.0042 55.1277 76.9938 56.0131C78.9781 56.9038 81.3063 57.3465 83.9729 57.3465C86.6917 57.3465 89.0459 56.9038 91.0354 56.0131C93.0354 55.1277 94.5771 53.6381 95.6604 51.5548C96.7542 49.4611 97.3063 46.6381 97.3063 43.0965V3.20064C97.3063 2.10689 97.8531 1.55481 98.9521 1.55481H103.64C104.733 1.55481 105.285 2.10689 105.285 3.20064V43.8256C105.285 47.534 104.728 50.7215 103.619 53.3881C102.52 56.0548 100.994 58.2319 99.0354 59.909C97.0771 61.5913 94.8063 62.8361 92.2229 63.6381C89.65 64.4402 86.9 64.8465 83.9729 64.8465Z" fill="#FAFFFB"/>
<path d="M133.934 63.5548H129.309C128.194 63.5548 127.642 63.0079 127.642 61.909V8.95064H113.6C112.501 8.95064 111.954 8.39856 111.954 7.28398V3.20064C111.954 2.10689 112.501 1.55481 113.6 1.55481H149.642C150.751 1.55481 151.309 2.10689 151.309 3.20064V7.28398C151.309 8.39856 150.751 8.95064 149.642 8.95064H135.6V61.909C135.6 63.0079 135.043 63.5548 133.934 63.5548Z" fill="#FAFFFB"/>
<path d="M188.076 64.8465C184.493 64.8465 181.076 64.3465 177.826 63.3465C174.587 62.3361 171.629 60.8778 168.951 58.9715C166.269 57.0705 163.951 54.7944 161.993 52.1382C160.035 49.4715 158.514 46.4924 157.431 43.2007C156.358 39.8986 155.826 36.3465 155.826 32.5549C155.826 28.7632 156.358 25.2215 157.431 21.9299C158.514 18.6278 160.035 15.6486 161.993 12.9924C163.951 10.3413 166.269 8.07048 168.951 6.17985C171.629 4.27881 174.587 2.82048 177.826 1.80485C181.076 0.778809 184.493 0.263184 188.076 0.263184C191.644 0.263184 195.045 0.778809 198.285 1.80485C201.535 2.82048 204.504 4.27881 207.201 6.17985C209.894 8.07048 212.222 10.3413 214.181 12.9924C216.149 15.6486 217.67 18.6278 218.743 21.9299C219.826 25.2215 220.368 28.7632 220.368 32.5549C220.368 36.3465 219.826 39.8986 218.743 43.2007C217.67 46.4924 216.149 49.4715 214.181 52.1382C212.222 54.7944 209.894 57.0705 207.201 58.9715C204.504 60.8778 201.54 62.3361 198.306 63.3465C195.082 64.3465 191.67 64.8465 188.076 64.8465ZM188.076 57.2215C191.436 57.2215 194.582 56.633 197.514 55.4507C200.441 54.258 203.024 52.5653 205.264 50.3674C207.498 48.1746 209.248 45.5705 210.514 42.5549C211.774 39.5444 212.41 36.2111 212.41 32.5549C212.41 28.8882 211.774 25.5496 210.514 22.534C209.248 19.5236 207.498 16.9246 205.264 14.7424C203.024 12.5496 200.441 10.8621 197.514 9.67985C194.582 8.48714 191.436 7.88818 188.076 7.88818C184.701 7.88818 181.54 8.48714 178.597 9.67985C175.649 10.8621 173.061 12.5496 170.826 14.7424C168.603 16.9246 166.858 19.5236 165.597 22.534C164.347 25.5496 163.722 28.8882 163.722 32.5549C163.722 36.1955 164.353 39.5236 165.618 42.534C166.879 45.5496 168.629 48.1538 170.868 50.3465C173.103 52.5288 175.686 54.2215 178.618 55.4299C181.545 56.6278 184.701 57.2215 188.076 57.2215Z" fill="#FFCEF1"/>
<path d="M236.311 63.5548H231.79C230.675 63.5548 230.123 63.008 230.123 61.909V2.80483C230.123 1.75274 230.332 0.992326 230.748 0.533993C231.165 0.0652423 231.686 -0.096215 232.311 0.0548263C232.936 0.195452 233.55 0.695452 234.165 1.55483L259.144 35.909L284.186 1.55483C284.795 0.695452 285.405 0.195452 286.019 0.0548263C286.644 -0.096215 287.165 0.0652423 287.582 0.533993C287.998 0.992326 288.207 1.75274 288.207 2.80483V61.909C288.207 63.008 287.655 63.5548 286.561 63.5548H282.04C280.941 63.5548 280.394 63.008 280.394 61.909V19.6798L260.332 47.0132C259.967 47.4871 259.571 47.7215 259.144 47.7215C258.712 47.7215 258.321 47.4871 257.978 47.0132L237.957 19.6798V61.909C237.957 63.008 237.405 63.5548 236.311 63.5548Z" fill="#FAFFFB"/>
<path d="M324.486 1.55481L350.131 61.659C350.366 62.2319 350.366 62.6902 350.131 63.034C349.907 63.3829 349.491 63.5548 348.881 63.5548H343.756C343.324 63.5548 342.933 63.4611 342.59 63.2631C342.256 63.0548 342.012 62.7371 341.861 62.3048L337.34 51.2423H308.59L304.069 62.3048C303.72 63.1381 303.074 63.5548 302.131 63.5548H297.048C296.423 63.5548 295.991 63.3829 295.756 63.034C295.532 62.6902 295.548 62.2319 295.798 61.659L321.423 1.55481C321.798 0.638143 322.303 0.17981 322.944 0.17981C323.595 0.17981 324.111 0.638143 324.486 1.55481ZM322.965 16.1173L311.423 44.3465H334.506L322.965 16.1173Z" fill="#FAFFFB"/>
<path d="M374.45 63.5548H369.825C368.71 63.5548 368.158 63.0079 368.158 61.909V8.95064H354.116C353.017 8.95064 352.471 8.39856 352.471 7.28398V3.20064C352.471 2.10689 353.017 1.55481 354.116 1.55481H390.158C391.267 1.55481 391.825 2.10689 391.825 3.20064V7.28398C391.825 8.39856 391.267 8.95064 390.158 8.95064H376.116V61.909C376.116 63.0079 375.559 63.5548 374.45 63.5548Z" fill="#FAFFFB"/>
<path d="M430.611 63.5548H400.611C399.512 63.5548 398.965 63.0079 398.965 61.909V3.20064C398.965 2.10689 399.512 1.55481 400.611 1.55481H430.611C431.705 1.55481 432.257 2.10689 432.257 3.20064V7.28398C432.257 8.39856 431.705 8.95064 430.611 8.95064H406.861V36.5131H427.382C428.476 36.5131 429.028 37.0652 429.028 38.159V42.0756C429.028 43.1902 428.476 43.7423 427.382 43.7423H406.861V56.159H430.611C431.705 56.159 432.257 56.7163 432.257 57.8256V61.909C432.257 63.0079 431.705 63.5548 430.611 63.5548Z" fill="#FAFFFB"/>
<mask id="mask1_91_651" style="mask-type:luminance" maskUnits="userSpaceOnUse" x="170" y="12" width="37" height="13">
<path d="M170.394 12.9243H206.29V24.9243H170.394V12.9243Z" fill="white"/>
</mask>
<g mask="url(#mask1_91_651)">
<path d="M203.827 24.7732C203.191 24.7732 202.649 24.5493 202.202 24.1014C201.29 23.1951 200.3 22.3826 199.228 21.6691C198.155 20.9555 197.024 20.3514 195.832 19.8618C194.644 19.3722 193.415 19.0024 192.155 18.7472C190.889 18.4972 189.618 18.3722 188.327 18.3722C187.04 18.3722 185.764 18.4972 184.504 18.7472C183.238 19.0024 182.014 19.3722 180.821 19.8618C179.634 20.3514 178.504 20.9555 177.431 21.6691C176.358 22.3826 175.368 23.1951 174.452 24.1014C174.238 24.3201 173.988 24.4868 173.707 24.6014C173.42 24.7159 173.129 24.7784 172.821 24.7732C172.514 24.7732 172.222 24.7159 171.941 24.5962C171.66 24.4816 171.41 24.3149 171.191 24.0962C170.978 23.8774 170.811 23.6274 170.696 23.3462C170.577 23.0649 170.519 22.768 170.519 22.4659C170.519 22.1587 170.582 21.867 170.696 21.5805C170.816 21.2993 170.983 21.0493 171.202 20.8357C171.759 20.2784 172.347 19.7472 172.962 19.242C173.577 18.742 174.212 18.2732 174.873 17.8305C175.535 17.393 176.212 16.9868 176.915 16.617C177.613 16.242 178.327 15.9034 179.061 15.6014C179.795 15.2993 180.54 15.0337 181.3 14.8045C182.056 14.5753 182.827 14.3826 183.603 14.2264C184.384 14.0753 185.165 13.9607 185.952 13.8826C186.743 13.8045 187.535 13.7628 188.327 13.7628C189.118 13.7628 189.91 13.8045 190.696 13.8826C191.488 13.9607 192.269 14.0753 193.05 14.2264C193.827 14.3826 194.592 14.5753 195.353 14.8045C196.113 15.0337 196.858 15.2993 197.592 15.6014C198.321 15.9034 199.04 16.242 199.738 16.617C200.441 16.9868 201.118 17.393 201.78 17.8305C202.436 18.2732 203.077 18.742 203.691 19.242C204.3 19.7472 204.889 20.2784 205.452 20.8357C205.785 21.1639 205.993 21.5597 206.087 22.0128C206.175 22.4712 206.134 22.9139 205.957 23.3462C205.774 23.7784 205.493 24.1222 205.108 24.3826C204.717 24.643 204.29 24.7732 203.827 24.7732Z" fill="#FFCEF1"/>
</g>
<path d="M248.426 177.04C246.478 177.04 244.52 176.899 242.551 176.623C240.593 176.358 238.515 175.884 236.322 175.207C234.124 174.514 231.739 173.577 229.155 172.394C228.166 171.884 227.932 171.134 228.447 170.144L230.176 166.186C230.687 165.217 231.452 164.998 232.468 165.54C235.702 167.264 238.577 168.426 241.093 169.019C243.603 169.603 245.869 169.894 247.885 169.894C251.411 169.894 254.208 169.144 256.28 167.644C258.364 166.134 259.405 163.998 259.405 161.248C259.405 159.665 259.01 158.243 258.218 156.978C257.437 155.717 256.374 154.551 255.03 153.478C253.697 152.394 252.145 151.347 250.385 150.332C248.619 149.306 246.739 148.238 244.739 147.123C242.807 146.03 240.916 144.889 239.072 143.707C237.223 142.514 235.562 141.186 234.093 139.728C232.635 138.259 231.468 136.571 230.593 134.665C229.718 132.748 229.28 130.54 229.28 128.04C229.28 125.321 229.765 122.988 230.739 121.04C231.708 119.082 233.041 117.467 234.739 116.186C236.432 114.91 238.364 113.972 240.53 113.373C242.697 112.764 244.989 112.457 247.405 112.457C249.874 112.457 252.499 112.78 255.28 113.415C258.057 114.04 260.812 114.946 263.551 116.123C264.577 116.613 264.848 117.353 264.364 118.353L262.739 122.269C262.499 122.702 262.202 122.998 261.843 123.165C261.478 123.321 261.041 123.28 260.53 123.04C258.322 122.014 256.083 121.217 253.822 120.644C251.572 120.061 249.416 119.769 247.364 119.769C245.557 119.769 243.885 120.035 242.343 120.561C240.801 121.077 239.562 121.905 238.635 123.04C237.702 124.165 237.239 125.644 237.239 127.478C237.239 129.092 237.583 130.535 238.28 131.811C238.989 133.092 239.947 134.264 241.155 135.332C242.364 136.389 243.739 137.384 245.28 138.311C246.833 139.243 248.473 140.181 250.197 141.123C251.807 142.014 253.432 142.936 255.072 143.894C256.723 144.842 258.28 145.868 259.739 146.978C261.208 148.077 262.515 149.301 263.655 150.644C264.791 151.993 265.687 153.498 266.343 155.165C267.01 156.832 267.343 158.717 267.343 160.811C267.343 163.509 266.843 165.868 265.843 167.894C264.853 169.926 263.489 171.618 261.739 172.978C259.989 174.342 257.973 175.353 255.697 176.019C253.432 176.696 251.01 177.04 248.426 177.04Z" fill="#FAFFFB"/>
<path d="M297.491 177.04C294.585 177.04 291.855 176.634 289.303 175.832C286.746 175.03 284.48 173.785 282.512 172.103C280.553 170.425 279.012 168.248 277.887 165.582C276.772 162.915 276.22 159.728 276.22 156.019V115.394C276.22 114.3 276.772 113.748 277.887 113.748H282.553C283.663 113.748 284.22 114.3 284.22 115.394V155.29C284.22 158.832 284.767 161.655 285.866 163.748C286.975 165.832 288.522 167.321 290.512 168.207C292.496 169.097 294.824 169.54 297.491 169.54C300.21 169.54 302.564 169.097 304.553 168.207C306.553 167.321 308.095 165.832 309.178 163.748C310.272 161.655 310.824 158.832 310.824 155.29V115.394C310.824 114.3 311.371 113.748 312.47 113.748H317.158C318.251 113.748 318.803 114.3 318.803 115.394V156.019C318.803 159.728 318.246 162.915 317.137 165.582C316.038 168.248 314.512 170.425 312.553 172.103C310.595 173.785 308.324 175.03 305.741 175.832C303.168 176.634 300.418 177.04 297.491 177.04Z" fill="#FAFFFB"/>
<path d="M360.181 177.04C356.623 177.04 353.233 176.54 350.014 175.54C346.806 174.53 343.858 173.077 341.181 171.186C338.498 169.301 336.17 167.035 334.202 164.394C332.228 161.743 330.702 158.764 329.618 155.457C328.545 152.139 328.014 148.571 328.014 144.748C328.014 140.931 328.556 137.368 329.639 134.061C330.733 130.743 332.264 127.764 334.222 125.123C336.181 122.472 338.498 120.202 341.181 118.311C343.858 116.426 346.795 114.978 349.993 113.978C353.202 112.967 356.566 112.457 360.097 112.457C364.582 112.457 368.748 113.248 372.597 114.832C376.457 116.405 379.827 118.571 382.702 121.332C383.103 121.707 383.285 122.097 383.243 122.498C383.202 122.889 382.993 123.269 382.618 123.644L379.035 126.498C378.269 127.207 377.498 127.196 376.722 126.457C374.514 124.472 371.998 122.915 369.181 121.79C366.373 120.655 363.347 120.082 360.097 120.082C356.79 120.082 353.67 120.681 350.743 121.873C347.827 123.056 345.254 124.738 343.035 126.915C340.811 129.097 339.066 131.696 337.806 134.707C336.54 137.722 335.91 141.04 335.91 144.665C335.91 148.332 336.54 151.681 337.806 154.707C339.066 157.738 340.816 160.347 343.056 162.54C345.29 164.722 347.873 166.415 350.806 167.623C353.733 168.821 356.889 169.415 360.264 169.415C363.431 169.415 366.42 168.847 369.243 167.707C372.077 166.556 374.566 164.998 376.722 163.04C377.472 162.332 378.243 162.321 379.035 162.998L382.618 165.769C383.504 166.561 383.587 167.321 382.868 168.04C380.004 170.806 376.629 172.998 372.743 174.623C368.853 176.233 364.665 177.04 360.181 177.04Z" fill="#FAFFFB"/>
<path d="M398.027 175.748H393.631C392.532 175.748 391.985 175.202 391.985 174.103V115.394C391.985 114.3 392.532 113.748 393.631 113.748H398.027C399.137 113.748 399.694 114.3 399.694 115.394V140.582L424.298 114.603C424.6 114.243 424.923 114.014 425.256 113.915C425.59 113.806 425.954 113.748 426.36 113.748H432.173C432.881 113.748 433.319 113.957 433.485 114.373C433.663 114.79 433.512 115.269 433.027 115.811L406.381 143.707L434.319 173.686C434.803 174.228 434.954 174.707 434.777 175.123C434.61 175.54 434.173 175.748 433.465 175.748H426.965C426.532 175.748 426.157 175.696 425.84 175.582C425.517 175.457 425.215 175.228 424.923 174.894L399.694 147.54V174.103C399.694 175.202 399.137 175.748 398.027 175.748Z" fill="#FAFFFB"/>
<path d="M20.5283 258.297C18.4554 258.297 16.4867 258.005 14.6117 257.422C12.7367 256.839 11.0179 256 9.46582 254.901C7.92415 253.807 6.5804 252.484 5.44498 250.943C4.31998 249.401 3.44498 247.682 2.81998 245.776C2.19498 243.875 1.88248 241.828 1.88248 239.63C1.88248 237.438 2.19498 235.391 2.81998 233.484C3.44498 231.583 4.31998 229.87 5.44498 228.339C6.5804 226.797 7.92415 225.484 9.46582 224.401C11.0179 223.307 12.7367 222.458 14.6117 221.859C16.4867 221.266 18.4554 220.964 20.5283 220.964C22.596 220.964 24.57 221.266 26.445 221.859C28.32 222.458 30.0335 223.307 31.5908 224.401C33.1429 225.484 34.4867 226.797 35.6117 228.339C36.7471 229.87 37.6325 231.583 38.2575 233.484C38.8825 235.391 39.195 237.438 39.195 239.63C39.195 241.828 38.8825 243.875 38.2575 245.776C37.6325 247.682 36.7471 249.401 35.6117 250.943C34.4867 252.484 33.1429 253.807 31.5908 254.901C30.0335 256 28.32 256.839 26.445 257.422C24.5804 258.005 22.6117 258.297 20.5283 258.297ZM20.5283 253.88C22.471 253.88 24.2887 253.542 25.9867 252.859C27.6794 252.182 29.1742 251.208 30.4658 249.943C31.7575 248.667 32.7627 247.162 33.4867 245.422C34.221 243.672 34.5908 241.745 34.5908 239.63C34.5908 237.521 34.221 235.599 33.4867 233.859C32.7627 232.109 31.7575 230.604 30.4658 229.339C29.1742 228.078 27.6794 227.104 25.9867 226.422C24.2887 225.729 22.471 225.38 20.5283 225.38C18.5804 225.38 16.7575 225.729 15.0492 226.422C13.3512 227.104 11.8617 228.078 10.57 229.339C9.27832 230.604 8.2679 232.109 7.54915 233.859C6.82519 235.599 6.46582 237.521 6.46582 239.63C6.46582 241.729 6.82519 243.651 7.54915 245.401C8.28353 247.141 9.29915 248.646 10.5908 249.922C11.8825 251.188 13.3721 252.167 15.07 252.859C16.7627 253.542 18.5804 253.88 20.5283 253.88Z" fill="#FAFFFB"/>
<path d="M73.4008 258.297C71.7185 258.297 70.1352 258.057 68.6508 257.589C67.1769 257.13 65.8696 256.417 64.7342 255.443C63.6092 254.474 62.7185 253.214 62.0675 251.672C61.4269 250.13 61.1091 248.292 61.1091 246.151V222.672C61.1091 222.037 61.4269 221.714 62.0675 221.714H64.7758C65.4112 221.714 65.7342 222.037 65.7342 222.672V245.714C65.7342 247.771 66.0467 249.401 66.6717 250.609C67.3071 251.818 68.2029 252.682 69.3592 253.193C70.5102 253.708 71.8592 253.964 73.4008 253.964C74.9685 253.964 76.3279 253.708 77.4842 253.193C78.6352 252.682 79.5258 251.818 80.1508 250.609C80.7758 249.401 81.0883 247.771 81.0883 245.714V222.672C81.0883 222.037 81.406 221.714 82.0467 221.714H84.755C85.3904 221.714 85.7133 222.037 85.7133 222.672V246.151C85.7133 248.292 85.3904 250.13 84.755 251.672C84.1144 253.214 83.2237 254.474 82.0883 255.443C80.9633 256.417 79.656 257.13 78.1717 257.589C76.6821 258.057 75.0935 258.297 73.4008 258.297Z" fill="#FAFFFB"/>
<path d="M118.852 257.547H116.164C115.524 257.547 115.206 257.229 115.206 256.589V225.984H107.102C106.461 225.984 106.144 225.667 106.144 225.026V222.672C106.144 222.037 106.461 221.714 107.102 221.714H127.935C128.571 221.714 128.894 222.037 128.894 222.672V225.026C128.894 225.667 128.571 225.984 127.935 225.984H119.81V256.589C119.81 257.229 119.487 257.547 118.852 257.547Z" fill="#FAFFFB"/>
<path d="M196.983 258.297C194.91 258.297 192.941 258.005 191.066 257.422C189.191 256.839 187.472 256 185.92 254.901C184.379 253.807 183.035 252.484 181.899 250.943C180.774 249.401 179.899 247.682 179.274 245.776C178.649 243.875 178.337 241.828 178.337 239.63C178.337 237.438 178.649 235.391 179.274 233.484C179.899 231.583 180.774 229.87 181.899 228.339C183.035 226.797 184.379 225.484 185.92 224.401C187.472 223.307 189.191 222.458 191.066 221.859C192.941 221.266 194.91 220.964 196.983 220.964C199.05 220.964 201.024 221.266 202.899 221.859C204.774 222.458 206.488 223.307 208.045 224.401C209.597 225.484 210.941 226.797 212.066 228.339C213.201 229.87 214.087 231.583 214.712 233.484C215.337 235.391 215.649 237.438 215.649 239.63C215.649 241.828 215.337 243.875 214.712 245.776C214.087 247.682 213.201 249.401 212.066 250.943C210.941 252.484 209.597 253.807 208.045 254.901C206.488 256 204.774 256.839 202.899 257.422C201.035 258.005 199.066 258.297 196.983 258.297ZM196.983 253.88C198.925 253.88 200.743 253.542 202.441 252.859C204.134 252.182 205.629 251.208 206.92 249.943C208.212 248.667 209.217 247.162 209.941 245.422C210.675 243.672 211.045 241.745 211.045 239.63C211.045 237.521 210.675 235.599 209.941 233.859C209.217 232.109 208.212 230.604 206.92 229.339C205.629 228.078 204.134 227.104 202.441 226.422C200.743 225.729 198.925 225.38 196.983 225.38C195.035 225.38 193.212 225.729 191.504 226.422C189.806 227.104 188.316 228.078 187.024 229.339C185.733 230.604 184.722 232.109 184.004 233.859C183.28 235.599 182.92 237.521 182.92 239.63C182.92 241.729 183.28 243.651 184.004 245.401C184.738 247.141 185.754 248.646 187.045 249.922C188.337 251.188 189.826 252.167 191.524 252.859C193.217 253.542 195.035 253.88 196.983 253.88Z" fill="#FAFFFB"/>
<path d="M241.439 257.547H238.772C238.131 257.547 237.814 257.229 237.814 256.589V222.672C237.814 222.037 238.131 221.714 238.772 221.714H256.105C256.741 221.714 257.064 222.037 257.064 222.672V225.026C257.064 225.667 256.741 225.984 256.105 225.984H242.397V241.922H254.564C255.199 241.922 255.522 242.245 255.522 242.88V245.13C255.522 245.771 255.199 246.089 254.564 246.089H242.397V256.589C242.397 257.229 242.074 257.547 241.439 257.547Z" fill="#FAFFFB"/>
<path d="M323.902 257.547H309.693C309.053 257.547 308.735 257.229 308.735 256.589V222.672C308.735 222.037 309.053 221.714 309.693 221.714H312.36C312.996 221.714 313.318 222.037 313.318 222.672V253.276H323.902C324.537 253.276 324.86 253.599 324.86 254.234V256.589C324.86 257.229 324.537 257.547 323.902 257.547Z" fill="#FAFFFB"/>
<path d="M349.209 257.547H346.542C345.901 257.547 345.584 257.229 345.584 256.589V222.672C345.584 222.037 345.901 221.714 346.542 221.714H349.209C349.844 221.714 350.167 222.037 350.167 222.672V256.589C350.167 257.229 349.844 257.547 349.209 257.547Z" fill="#FAFFFB"/>
<path d="M377.428 257.547H374.761C374.12 257.547 373.803 257.229 373.803 256.589V222.672C373.803 222.037 374.12 221.714 374.761 221.714H392.094C392.73 221.714 393.053 222.037 393.053 222.672V225.026C393.053 225.667 392.73 225.984 392.094 225.984H378.386V241.922H390.553C391.188 241.922 391.511 242.245 391.511 242.88V245.13C391.511 245.771 391.188 246.089 390.553 246.089H378.386V256.589C378.386 257.229 378.063 257.547 377.428 257.547Z" fill="#FAFFFB"/>
<path d="M432.744 257.547H415.411C414.77 257.547 414.453 257.229 414.453 256.589V222.672C414.453 222.037 414.77 221.714 415.411 221.714H432.744C433.38 221.714 433.703 222.037 433.703 222.672V225.026C433.703 225.667 433.38 225.984 432.744 225.984H419.036V241.922H430.869C431.505 241.922 431.828 242.245 431.828 242.88V245.13C431.828 245.771 431.505 246.089 430.869 246.089H419.036V253.276H432.744C433.38 253.276 433.703 253.599 433.703 254.234V256.589C433.703 257.229 433.38 257.547 432.744 257.547Z" fill="#FAFFFB"/>
<path d="M21.9792 175.748H17.3542C16.2396 175.748 15.6875 175.202 15.6875 174.103V121.144H1.64583C0.546875 121.144 0 120.592 0 119.478V115.394C0 114.3 0.546875 113.748 1.64583 113.748H37.6875C38.7969 113.748 39.3542 114.3 39.3542 115.394V119.478C39.3542 120.592 38.7969 121.144 37.6875 121.144H23.6458V174.103C23.6458 175.202 23.0885 175.748 21.9792 175.748Z" fill="#FAFFFB"/>
<path d="M52.7448 175.748H48.1406C47.0417 175.748 46.4948 175.202 46.4948 174.103V115.394C46.4948 114.3 47.0417 113.748 48.1406 113.748H52.7448C53.8385 113.748 54.3906 114.3 54.3906 115.394V148.623H84.6615V115.394C84.6615 114.3 85.2135 113.748 86.3281 113.748H90.9323C92.026 113.748 92.5781 114.3 92.5781 115.394V174.103C92.5781 175.202 92.026 175.748 90.9323 175.748H86.3281C85.2135 175.748 84.6615 175.202 84.6615 174.103V156.019H54.3906V174.103C54.3906 175.202 53.8385 175.748 52.7448 175.748Z" fill="#FAFFFB"/>
<path d="M136.5 175.748H106.5C105.402 175.748 104.855 175.202 104.855 174.103V115.394C104.855 114.3 105.402 113.748 106.5 113.748H136.5C137.594 113.748 138.146 114.3 138.146 115.394V119.478C138.146 120.592 137.594 121.144 136.5 121.144H112.75V148.707H133.271C134.365 148.707 134.917 149.259 134.917 150.353V154.269C134.917 155.384 134.365 155.936 133.271 155.936H112.75V168.353H136.5C137.594 168.353 138.146 168.91 138.146 170.019V174.103C138.146 175.202 137.594 175.748 136.5 175.748Z" fill="#FAFFFB"/>
</svg>
