<svg width="126" height="127" viewBox="0 0 126 127" fill="none" xmlns="http://www.w3.org/2000/svg">
<path d="M40.8711 26.5252C42.161 25.4197 44.1029 25.5691 45.2084 26.859L117.273 110.94C118.378 112.23 118.229 114.172 116.939 115.278L113.435 118.28C112.145 119.386 110.204 119.236 109.098 117.946L37.0339 33.8653C35.9283 32.5754 36.0778 30.6334 37.3677 29.5279L40.8711 26.5252Z" fill="#FAFAFA"/>
<path fill-rule="evenodd" clip-rule="evenodd" d="M48.7118 23.8565L120.776 107.938C123.54 111.162 123.166 116.017 119.941 118.781L116.438 121.784C113.213 124.548 108.359 124.174 105.595 120.949L33.5305 36.8681C30.7667 33.6434 31.1403 28.7886 34.3651 26.0247L37.8684 23.022C41.0932 20.2581 45.948 20.6318 48.7118 23.8565ZM45.2085 26.8592C44.1029 25.5693 42.161 25.4199 40.8711 26.5254L37.3677 29.5281C36.0778 30.6336 35.9284 32.5755 37.0339 33.8655L109.098 117.947C110.204 119.236 112.145 119.386 113.435 118.28L116.939 115.278C118.229 114.172 118.378 112.23 117.273 110.94L45.2085 26.8592Z" fill="#14071B"/>
<path d="M53.2157 36.2017L111.267 103.934L103.093 110.94L45.0411 43.2079L53.2157 36.2017Z" fill="#14071B"/>
<path fill-rule="evenodd" clip-rule="evenodd" d="M1.66801 25.6902L14.0136 7.0066L15.2968 7.85449L2.95121 26.5381L1.66801 25.6902Z" fill="currentColor"/>
<path fill-rule="evenodd" clip-rule="evenodd" d="M17.1828 22.5207L1.83563 9.34114L2.83765 8.17432L18.1848 21.3538L17.1828 22.5207Z" fill="currentColor"/>
<path fill-rule="evenodd" clip-rule="evenodd" d="M-3.11103e-05 19.0177L18.0171 11.6782L18.5973 13.1025L0.580208 20.4421L-3.11103e-05 19.0177Z" fill="currentColor"/>
<path fill-rule="evenodd" clip-rule="evenodd" d="M11.3437 27.5255L7.67448 4.33706L9.1936 4.09668L12.8628 27.2851L11.3437 27.5255Z" fill="currentColor"/>
<path fill-rule="evenodd" clip-rule="evenodd" d="M44.5421 7.17453L28.0266 9.17578L27.8416 7.64893L44.357 5.64767L44.5421 7.17453Z" fill="currentColor"/>
<path fill-rule="evenodd" clip-rule="evenodd" d="M36.6073 17.5788L35.2003 1.00215L36.7328 0.87207L38.1398 17.4488L36.6073 17.5788Z" fill="currentColor"/>
<path fill-rule="evenodd" clip-rule="evenodd" d="M39.7041 13.3465L30.6961 2.83634L31.8639 1.83545L40.8719 12.3456L39.7041 13.3465Z" fill="currentColor"/>
<path fill-rule="evenodd" clip-rule="evenodd" d="M31.0293 12.6784L40.5385 2.50261L41.6622 3.55273L32.153 13.7285L31.0293 12.6784Z" fill="currentColor"/>
<path fill-rule="evenodd" clip-rule="evenodd" d="M28.5475 52.325L12.4559 42.7773L13.2407 41.4546L29.3323 51.0023L28.5475 52.325Z" fill="currentColor"/>
<path fill-rule="evenodd" clip-rule="evenodd" d="M16.0138 51.8822L24.5222 40.5386L25.7526 41.4614L17.2442 52.805L16.0138 51.8822Z" fill="currentColor"/>
<path fill-rule="evenodd" clip-rule="evenodd" d="M27.358 46.21L12.8443 50.5469L12.4039 49.0732L26.9176 44.7364L27.358 46.21Z" fill="currentColor"/>
<path d="M23.0221 3.33648C22.3771 3.88925 21.4062 3.81453 20.8534 3.16957C20.3006 2.52462 20.3754 1.55367 21.0203 1.00089C21.6653 0.448114 22.6362 0.522839 23.189 1.16779C23.7418 1.81275 23.6671 2.7837 23.0221 3.33648Z" fill="currentColor"/>
<path d="M24.0221 32.8648C23.3771 33.4176 22.4062 33.3428 21.8534 32.6979C21.3006 32.0529 21.3754 31.082 22.0203 30.5292C22.6653 29.9764 23.6362 30.0512 24.189 30.6961C24.7418 31.3411 24.6671 32.312 24.0221 32.8648Z" fill="currentColor"/>
<path d="M45.4592 16.5169C45.1368 16.7933 44.6513 16.7559 44.3749 16.4334C44.0985 16.1109 44.1359 15.6255 44.4583 15.3491C44.7808 15.0727 45.2663 15.1101 45.5427 15.4325C45.8191 15.755 45.7817 16.2405 45.4592 16.5169Z" fill="currentColor"/>
<path d="M22.271 20.1853C21.9485 20.4617 21.463 20.4244 21.1867 20.1019C20.9103 19.7794 20.9476 19.2939 21.2701 19.0175C21.5926 18.7411 22.0781 18.7785 22.3544 19.101C22.6308 19.4235 22.5935 19.9089 22.271 20.1853Z" fill="currentColor"/>
<path d="M7.08948 33.197C6.767 33.4734 6.28153 33.4361 6.00514 33.1136C5.72875 32.7911 5.76611 32.3056 6.08859 32.0293C6.41107 31.7529 6.89654 31.7902 7.17293 32.1127C7.44932 32.4352 7.41196 32.9207 7.08948 33.197Z" fill="currentColor"/>
<path d="M36.283 50.7146C35.9605 50.991 35.475 50.9537 35.1986 50.6312C34.9222 50.3087 34.9596 49.8232 35.2821 49.5468C35.6045 49.2704 36.09 49.3078 36.3664 49.6303C36.6428 49.9528 36.6054 50.4382 36.283 50.7146Z" fill="currentColor"/>
</svg>
