<svg xmlns="http://www.w3.org/2000/svg" xmlns:xlink="http://www.w3.org/1999/xlink" width="500" zoomAndPan="magnify" viewBox="0 0 375 374.999991" height="500" preserveAspectRatio="xMidYMid meet" version="1.0"><path fill="#561f76" d="M 32.359375 153.308594 L 32.359375 223.703125 C 32.359375 228.953125 31.617188 232.085938 29.132812 234.574219 L 48.386719 234.574219 C 53.828125 234.574219 58.613281 232.085938 58.613281 226.464844 C 58.613281 213.199219 37.703125 199.5625 37.703125 170.078125 C 37.703125 165.839844 38.066406 160.035156 41.109375 160.035156 C 45.53125 160.035156 54.285156 188.324219 56.40625 194.773438 C 61.105469 209.050781 65.804688 225.269531 69.121094 225.269531 C 72.710938 225.269531 75.292969 210.527344 79.070312 195.046875 C 83.21875 178.003906 88.375 160.035156 91.878906 160.035156 C 94.917969 160.035156 95.285156 165.839844 95.285156 170.078125 L 95.285156 223.703125 C 95.285156 228.953125 94.550781 232.085938 92.058594 234.574219 L 122.925781 234.574219 C 120.441406 232.085938 119.703125 228.953125 119.703125 223.703125 L 119.703125 153.308594 C 119.703125 148.058594 120.441406 144.921875 122.925781 142.4375 L 93.816406 142.4375 C 85.058594 142.4375 84.96875 152.941406 76.125 179.566406 C 67.277344 152.941406 67.183594 142.4375 58.433594 142.4375 L 29.132812 142.4375 C 31.617188 144.921875 32.359375 148.058594 32.359375 153.308594 Z M 32.359375 153.308594 " fill-opacity="1" fill-rule="nonzero"/><path fill="#561f76" d="M 123.574219 234.574219 L 154.71875 234.574219 C 160.152344 234.574219 161.441406 229.136719 161.441406 224.804688 C 161.441406 217.160156 158.308594 209.605469 155.082031 201.863281 L 168.628906 201.863281 C 170.472656 212.371094 171.667969 221.488281 171.667969 224.53125 C 171.667969 228.308594 170.472656 232.179688 168.351562 234.574219 L 206.402344 234.574219 C 202.625 231.4375 200.597656 224.347656 198.296875 216.699219 C 190.832031 191.730469 187.976562 177.355469 183.371094 151.742188 C 182.726562 148.152344 183.371094 144.371094 185.398438 142.4375 L 144.578125 142.4375 C 146.605469 144.371094 147.253906 148.152344 146.605469 151.742188 C 142 177.355469 139.144531 191.730469 131.679688 216.699219 C 129.378906 224.347656 127.351562 231.4375 123.574219 234.574219 Z M 153.332031 197.722656 C 150.382812 190.4375 147.710938 182.882812 147.710938 174.777344 C 147.710938 167.40625 149.277344 160.492188 154.070312 160.492188 C 159.230469 160.492188 164.390625 180.03125 167.800781 197.722656 Z M 153.332031 197.722656 " fill-opacity="1" fill-rule="nonzero"/><path fill="#561f76" d="M 189.101562 142.4375 C 199.699219 150.730469 200.714844 170.078125 201.90625 182.238281 C 202.921875 192.1875 206.242188 203.25 220.152344 203.25 C 226.789062 203.25 228.167969 200.941406 230.566406 200.941406 C 231.300781 200.941406 231.761719 201.585938 231.761719 202.328125 C 231.761719 207.855469 210.753906 213.75 210.753906 225.726562 C 210.753906 229.6875 212.503906 234.574219 216.46875 234.574219 L 238.855469 234.574219 C 242.355469 234.574219 243.644531 233.46875 243.644531 231.996094 C 243.644531 227.480469 234.617188 224.347656 234.617188 210.621094 C 234.617188 198.457031 262.8125 183.53125 262.8125 155.980469 C 262.8125 150.265625 261.613281 142.4375 255.535156 142.4375 L 234.066406 142.4375 C 231.117188 142.4375 228.902344 144.832031 228.902344 147.6875 C 228.902344 156.441406 242.542969 169.339844 242.542969 181.316406 C 242.542969 187.125 240.605469 196.152344 228.539062 196.242188 C 220.890625 196.335938 217.296875 191.636719 217.296875 187.03125 C 217.296875 175.332031 225.867188 170.078125 225.867188 158.285156 C 225.867188 151.007812 222.730469 142.4375 213.882812 142.4375 Z M 189.101562 142.4375 " fill-opacity="1" fill-rule="nonzero"/><path fill="#561f76" d="M 265.296875 142.4375 C 267.785156 144.921875 268.527344 148.058594 268.527344 153.308594 L 268.527344 223.703125 C 268.527344 228.953125 267.785156 232.085938 265.296875 234.574219 L 304.457031 234.574219 C 322.515625 234.574219 333.203125 227.480469 333.203125 200.113281 C 333.203125 176.894531 321.683594 142.4375 293.585938 142.4375 Z M 299.851562 147.6875 C 308.328125 147.6875 309.0625 170.90625 309.0625 188.6875 C 309.0625 215.777344 306.300781 229.875 299.300781 229.875 C 294.136719 229.875 292.480469 223.148438 292.480469 206.933594 C 292.480469 205.457031 292.480469 189.980469 292.480469 188.503906 C 292.480469 187.03125 292.480469 171.554688 292.480469 170.078125 C 292.480469 153.863281 294.136719 147.6875 299.851562 147.6875 Z M 299.851562 147.6875 " fill-opacity="1" fill-rule="nonzero"/></svg>