<svg width="82" height="83" viewBox="0 0 82 83" fill="none" xmlns="http://www.w3.org/2000/svg">
<path d="M26.5737 17.2464C27.4124 16.5275 28.675 16.6247 29.3938 17.4634L76.2488 72.1316C76.9676 72.9703 76.8704 74.2329 76.0317 74.9517L73.7539 76.904C72.9152 77.6228 71.6526 77.5256 70.9338 76.6869L24.0788 22.0187C23.36 21.1801 23.4572 19.9175 24.2959 19.1986L26.5737 17.2464Z" fill="#FAFAFA"/>
<path fill-rule="evenodd" clip-rule="evenodd" d="M31.6717 15.5112L78.5266 70.1795C80.3236 72.2762 80.0807 75.4326 77.984 77.2297L75.7062 79.182C73.6095 80.979 70.453 80.7361 68.656 78.6394L21.801 23.9712C20.004 21.8745 20.2469 18.718 22.3436 16.9209L24.6214 14.9687C26.7181 13.1716 29.8746 13.4146 31.6717 15.5112ZM29.3938 17.4635C28.675 16.6249 27.4124 16.5277 26.5737 17.2465L24.2959 19.1988C23.4572 19.9176 23.36 21.1802 24.0789 22.0189L70.9338 76.6871C71.6526 77.5258 72.9152 77.6229 73.7539 76.9041L76.0317 74.9518C76.8704 74.233 76.9676 72.9704 76.2488 72.1318L29.3938 17.4635Z" fill="#14071B"/>
<path d="M34.6 23.5376L72.3442 67.5759L67.0293 72.1312L29.285 28.0929L34.6 23.5376Z" fill="#14071B"/>
<path fill-rule="evenodd" clip-rule="evenodd" d="M1.08449 16.7035L9.11136 4.55565L9.94568 5.10693L1.9188 17.2547L1.08449 16.7035Z" fill="#14071B"/>
<path fill-rule="evenodd" clip-rule="evenodd" d="M11.172 14.6427L1.19347 6.07359L1.84497 5.31494L11.8235 13.8841L11.172 14.6427Z" fill="#14071B"/>
<path fill-rule="evenodd" clip-rule="evenodd" d="M-1.00746e-05 12.365L11.7144 7.59294L12.0917 8.51904L0.377252 13.2911L-1.00746e-05 12.365Z" fill="#14071B"/>
<path fill-rule="evenodd" clip-rule="evenodd" d="M7.3755 17.8966L4.98983 2.81987L5.97754 2.66357L8.36321 17.7403L7.3755 17.8966Z" fill="#14071B"/>
<path fill-rule="evenodd" clip-rule="evenodd" d="M28.9606 4.6647L18.2225 5.96588L18.1022 4.97314L28.8403 3.67196L28.9606 4.6647Z" fill="#14071B"/>
<path fill-rule="evenodd" clip-rule="evenodd" d="M23.8014 11.4294L22.8866 0.651468L23.8831 0.566895L24.7979 11.3448L23.8014 11.4294Z" fill="#14071B"/>
<path fill-rule="evenodd" clip-rule="evenodd" d="M25.815 8.67765L19.9581 1.84412L20.7174 1.19336L26.5743 8.02689L25.815 8.67765Z" fill="#14071B"/>
<path fill-rule="evenodd" clip-rule="evenodd" d="M20.1747 8.24344L26.3575 1.62729L27.0881 2.31006L20.9054 8.92621L20.1747 8.24344Z" fill="#14071B"/>
<path fill-rule="evenodd" clip-rule="evenodd" d="M18.5611 34.0209L8.09861 27.8131L8.60889 26.9531L19.0714 33.1609L18.5611 34.0209Z" fill="#14071B"/>
<path fill-rule="evenodd" clip-rule="evenodd" d="M10.4119 33.7329L15.9439 26.3575L16.7439 26.9575L11.2119 34.3329L10.4119 33.7329Z" fill="#14071B"/>
<path fill-rule="evenodd" clip-rule="evenodd" d="M17.7877 30.0451L8.35112 32.8649L8.06482 31.9067L17.5014 29.087L17.7877 30.0451Z" fill="#14071B"/>
<path d="M14.9686 2.16932C14.5493 2.52873 13.918 2.48015 13.5586 2.06081C13.1992 1.64147 13.2478 1.01017 13.6671 0.650763C14.0865 0.291357 14.7177 0.339942 15.0772 0.759281C15.4366 1.17862 15.388 1.80992 14.9686 2.16932Z" fill="#14071B"/>
<path d="M15.6188 21.3681C15.1994 21.7275 14.5681 21.6789 14.2087 21.2595C13.8493 20.8402 13.8979 20.2089 14.3173 19.8495C14.7366 19.4901 15.3679 19.5387 15.7273 19.958C16.0867 20.3774 16.0381 21.0086 15.6188 21.3681Z" fill="#14071B"/>
<path d="M29.5569 10.739C29.3472 10.9187 29.0316 10.8944 28.8519 10.6847C28.6722 10.475 28.6965 10.1594 28.9061 9.97968C29.1158 9.79998 29.4314 9.82427 29.6111 10.0339C29.7909 10.2436 29.7666 10.5593 29.5569 10.739Z" fill="#14071B"/>
<path d="M14.4802 13.1242C14.2706 13.3039 13.9549 13.2796 13.7752 13.07C13.5955 12.8603 13.6198 12.5446 13.8295 12.3649C14.0391 12.1852 14.3548 12.2095 14.5345 12.4192C14.7142 12.6289 14.6899 12.9445 14.4802 13.1242Z" fill="#14071B"/>
<path d="M4.6095 21.5842C4.39983 21.7639 4.08418 21.7396 3.90448 21.5299C3.72478 21.3202 3.74907 21.0046 3.95874 20.8249C4.16841 20.6452 4.48406 20.6695 4.66376 20.8792C4.84346 21.0888 4.81917 21.4045 4.6095 21.5842Z" fill="#14071B"/>
<path d="M23.5906 32.9738C23.3809 33.1535 23.0653 33.1292 22.8856 32.9196C22.7059 32.7099 22.7301 32.3942 22.9398 32.2145C23.1495 32.0348 23.4651 32.0591 23.6448 32.2688C23.8245 32.4785 23.8003 32.7941 23.5906 32.9738Z" fill="#14071B"/>
</svg>
